<svg width="100" height="100" viewBox="0 0 100 100" fill="none" xmlns="http://www.w3.org/2000/svg">
<path d="M50.0001 92.1549C73.3087 92.1549 92.155 73.2545 92.155 50C92.155 38.74 87.7702 28.1539 79.8081 20.192C71.846 12.2301 61.2601 7.84512 50.0001 7.84512C38.7401 7.84512 28.154 12.2299 20.1921 20.192C12.2302 28.1541 7.84521 38.74 7.84521 50C7.84521 73.2154 26.6524 92.1549 50.0001 92.1549V92.1549ZM50.0001 89.2252C39.3704 89.2252 29.7165 84.9731 22.6448 78.0828C24.8995 71.6672 30.355 66.9367 37.0788 65.6428L40.0157 65.0774C45.3372 71.3811 55.0907 71.4399 60.5216 65.1807L62.9214 65.6426C69.6452 66.9365 75.1007 71.667 77.3554 78.0826C70.2837 84.9731 60.6298 89.2252 50.0001 89.2252V89.2252ZM53.5423 30.058C51.3563 30.7606 48.6399 30.759 46.4581 30.058C41.9261 28.602 38.4245 31.5281 38.4403 35.2695L38.4454 39.7402L36.1644 38.9461C35.8351 38.8315 35.6142 38.5203 35.6142 38.1721V32.7211C35.6142 27.3635 39.9728 23.0047 45.3306 23.0047H56.5913C57.9366 23.0047 59.031 24.0992 59.031 25.4445C59.031 26.9793 60.2798 28.2281 61.8146 28.2281H61.9462C63.2917 28.2281 64.386 29.3227 64.386 30.6678V38.1723C64.386 38.5205 64.1649 38.8316 63.836 38.9461L61.5556 39.7402L61.5599 35.274C61.5757 31.5406 58.1001 28.5938 53.5423 30.058V30.058ZM37.6675 42.5717C39.4798 43.2023 41.3784 41.8531 41.3751 39.9328L41.3698 35.2617C41.3618 33.3555 43.0411 32.0373 45.5618 32.8475C48.321 33.7338 51.6511 33.743 54.4382 32.8475C56.9188 32.0506 58.6382 33.3324 58.6302 35.2664L58.6257 39.933C58.6233 41.8524 60.5206 43.2031 62.3335 42.5719L64.5923 41.7852V44.5252C64.5923 45.3941 63.8853 46.1012 63.0163 46.1012H62.7962C62.0093 46.1012 61.363 46.7231 61.3325 47.5092C61.2202 50.4045 60.0147 52.9422 57.8468 54.8482C53.2073 58.926 46.8872 58.9231 42.2485 54.9149C40.0987 53.057 38.8392 50.4227 38.7015 47.4971C38.6647 46.7156 38.0204 46.1012 37.2382 46.1012H36.9837C36.1147 46.1012 35.4077 45.3941 35.4077 44.5252V41.785L37.6675 42.5717ZM57.4056 64.1781C53.2751 67.9201 46.9187 67.8082 42.946 63.9256C44.0882 63.0115 44.7954 61.615 44.7954 60.066V59.8557C48.1796 61.1785 51.8315 61.1775 55.2052 59.8658V60.066C55.205 61.7574 56.0675 63.2797 57.4056 64.1781V64.1781ZM50.0001 10.7748C71.6288 10.7748 89.2253 28.3713 89.2253 50C89.2253 59.8365 85.5851 68.8381 79.5819 75.7307C76.7175 69.0387 70.738 64.1635 63.4749 62.7656C63.047 62.6832 63.0624 62.6861 59.7763 62.0537C58.8251 61.8707 58.1347 61.0348 58.1347 60.0658V58.3232C58.6995 57.941 59.2485 57.5162 59.7812 57.0481C62.247 54.8801 63.7437 52.0777 64.1552 48.8846C66.0901 48.3789 67.5222 46.6158 67.5222 44.5246V40.3721C67.5222 39.8926 67.4185 39.4199 67.2243 38.9863C67.2833 38.7225 67.3159 38.45 67.3159 38.1717V30.6672C67.3159 27.7106 64.914 25.3045 61.9589 25.2979C61.8813 22.4043 59.5034 20.0744 56.5915 20.0744H45.3308C38.3577 20.0744 32.6847 25.7475 32.6847 32.7205V38.1715C32.6847 38.4498 32.7173 38.7223 32.7763 38.9861C32.5819 39.4195 32.4784 39.8924 32.4784 40.3719V44.5244C32.4784 46.632 33.9331 48.4065 35.8913 48.8961C36.3349 52.1258 37.8849 55.0149 40.3335 57.1309C40.8304 57.5604 41.3419 57.9508 41.8661 58.3063V60.0654C41.8661 61.0125 41.2194 61.8225 40.2938 62.0354C40.0624 62.0885 39.1495 62.2574 36.5257 62.765C29.2626 64.1629 23.2831 69.0379 20.4187 75.7301C14.4151 68.8381 10.7749 59.8365 10.7749 50C10.7749 28.3713 28.3714 10.7748 50.0001 10.7748V10.7748Z" fill="#57A5FB"/>
<path d="M80.7061 85.6766C72.1775 93.024 61.2727 97.0703 50 97.0703C23.9855 97.0703 2.92969 76.0182 2.92969 50C2.92969 38.7274 6.97598 27.8225 14.3234 19.294C14.8514 18.6809 14.7826 17.7561 14.1697 17.2279C13.5568 16.7004 12.632 16.7688 12.1037 17.3817C4.29863 26.4418 0 38.0258 0 50C0 77.6344 22.3637 100 50 100C61.9742 100 73.5582 95.7014 82.6184 87.8963C83.2313 87.3682 83.3 86.4434 82.7721 85.8303C82.2441 85.2174 81.3191 85.1488 80.7061 85.6766V85.6766Z" fill="#2D6EB5"/>
<path d="M85.3556 14.6445C75.9119 5.20098 63.3556 0 50.0002 0C37.8757 0 26.1814 4.39434 17.071 12.3738C16.4624 12.9068 16.4011 13.8322 16.9343 14.4408C17.4673 15.0496 18.3929 15.1109 19.0013 14.5775C27.5771 7.06641 38.5861 2.92969 50.0002 2.92969C62.5732 2.92969 74.3937 7.82578 83.284 16.7162C92.1742 25.6066 97.0705 37.427 97.0705 50C97.0705 61.4141 92.9338 72.4231 85.4226 80.9988C84.8896 81.6074 84.9507 82.5328 85.5593 83.0658C86.1689 83.6002 87.0947 83.5363 87.6263 82.9291C95.6058 73.8188 100 62.1244 100 50C100 36.6445 94.7992 24.0883 85.3556 14.6445V14.6445Z" fill="#2D6EB5"/>
</svg>
