<svg width="100" height="100" viewBox="0 0 100 100" fill="none" xmlns="http://www.w3.org/2000/svg">
<g clip-path="url(#clip0)">
<path d="M94.5898 1.97268H5.41016C2.42695 1.97268 0 4.39943 0 7.38283V70.5195C0 73.5028 2.42695 75.9297 5.41016 75.9297H14.0625C14.8717 75.9297 15.5273 75.274 15.5273 74.4649C15.5273 73.6557 14.8717 73 14.0625 73H5.41016C4.04238 73 2.92969 71.8873 2.92969 70.5195V7.38283C2.92969 6.01506 4.04238 4.90236 5.41016 4.90236H94.5898C95.9576 4.90236 97.0703 6.01506 97.0703 7.38283V70.5195C97.0703 71.8873 95.9576 73 94.5898 73H20.8984C20.0893 73 19.4336 73.6557 19.4336 74.4649C19.4336 75.274 20.0893 75.9297 20.8984 75.9297H36.6094C36.3305 78.5024 35.1801 84.0754 30.4645 88.7834H25.5352C24.0746 88.7834 22.8865 89.9715 22.8865 91.4319V95.3791C22.8865 96.8397 24.0746 98.0278 25.5352 98.0278H61.9707C62.7799 98.0278 63.4355 97.3721 63.4355 96.5629C63.4355 95.7537 62.7799 95.0981 61.9707 95.0981H25.8164V91.7133H74.1836V95.0981H68.8066C67.9975 95.0981 67.3418 95.7537 67.3418 96.5629C67.3418 97.3721 67.9975 98.0278 68.8066 98.0278H74.4648C75.9254 98.0278 77.1135 96.8397 77.1135 95.3791V91.4319C77.1135 89.9715 75.9254 88.7834 74.4648 88.7834H69.5357C64.8463 84.0987 63.6832 78.5084 63.3959 75.9297H94.5898C97.573 75.9297 100 73.5028 100 70.5195V7.38283C100 4.39943 97.573 1.97268 94.5898 1.97268V1.97268ZM65.6125 88.7832H34.3875C38.3625 83.7819 39.327 78.4621 39.5568 75.9295H60.443C60.673 78.4623 61.6375 83.7819 65.6125 88.7832Z" fill="#2D6EB5"/>
<path d="M82.4785 63.6973H92.2207C93.0299 63.6973 93.6856 63.0417 93.6856 62.2325V9.75201C93.6856 8.94283 93.0299 8.28717 92.2207 8.28717H7.7793C6.97012 8.28717 6.31445 8.94283 6.31445 9.75201V62.2325C6.31445 63.0417 6.97012 63.6973 7.7793 63.6973H75.6426C76.4518 63.6973 77.1074 63.0417 77.1074 62.2325C77.1074 61.4233 76.4518 60.7676 75.6426 60.7676H9.24414V11.2169H90.7559V60.7676H82.4785C81.6693 60.7676 81.0137 61.4233 81.0137 62.2325C81.0137 63.0417 81.6693 63.6973 82.4785 63.6973Z" fill="#2D6EB5"/>
<path d="M24.6324 17.8406C24.6324 17.0315 23.9768 16.3758 23.1676 16.3758H14.0918C13.2826 16.3758 12.627 17.0315 12.627 17.8406V25.7324C12.627 26.5416 13.2826 27.1973 14.0918 27.1973H23.1676C23.9768 27.1973 24.6324 26.5416 24.6324 25.7324V17.8406ZM21.7027 24.2676H15.5566V19.3055H21.7027V24.2676Z" fill="#57A5FB"/>
<path d="M31.0596 27.1973H55.5244C56.3336 27.1973 56.9892 26.5416 56.9892 25.7324C56.9892 24.9232 56.3336 24.2676 55.5244 24.2676H31.0596C30.2504 24.2676 29.5947 24.9232 29.5947 25.7324C29.5947 26.5416 30.2506 27.1973 31.0596 27.1973Z" fill="#57A5FB"/>
<path d="M62.6271 16.3758H42.5029C41.6937 16.3758 41.0381 17.0315 41.0381 17.8406C41.0381 18.6498 41.6937 19.3055 42.5029 19.3055H62.6271C63.4363 19.3055 64.092 18.6498 64.092 17.8406C64.092 17.0315 63.4363 16.3758 62.6271 16.3758Z" fill="#57A5FB"/>
<path d="M31.0596 19.3055H35.5973C36.4064 19.3055 37.0621 18.6498 37.0621 17.8406C37.0621 17.0315 36.4064 16.3758 35.5973 16.3758H31.0596C30.2504 16.3758 29.5947 17.0315 29.5947 17.8406C29.5947 18.6498 30.2506 19.3055 31.0596 19.3055Z" fill="#57A5FB"/>
<path d="M24.6324 32.0459C24.6324 31.2367 23.9768 30.5811 23.1676 30.5811H14.0918C13.2826 30.5811 12.627 31.2367 12.627 32.0459V39.9377C12.627 40.7469 13.2826 41.4026 14.0918 41.4026H23.1676C23.9768 41.4026 24.6324 40.7469 24.6324 39.9377V32.0459ZM21.7027 38.4729H15.5566V33.5108H21.7027V38.4729Z" fill="#57A5FB"/>
<path d="M31.0596 41.4026H55.5244C56.3336 41.4026 56.9892 40.7469 56.9892 39.9377C56.9892 39.1285 56.3336 38.4729 55.5244 38.4729H31.0596C30.2504 38.4729 29.5947 39.1285 29.5947 39.9377C29.5947 40.7469 30.2506 41.4026 31.0596 41.4026Z" fill="#57A5FB"/>
<path d="M62.6271 30.5811H42.5029C41.6937 30.5811 41.0381 31.2367 41.0381 32.0459C41.0381 32.8551 41.6937 33.5108 42.5029 33.5108H62.6271C63.4363 33.5108 64.092 32.8551 64.092 32.0459C64.092 31.2367 63.4363 30.5811 62.6271 30.5811Z" fill="#57A5FB"/>
<path d="M31.0596 33.5108H35.5973C36.4064 33.5108 37.0621 32.8551 37.0621 32.0459C37.0621 31.2367 36.4064 30.5811 35.5973 30.5811H31.0596C30.2504 30.5811 29.5947 31.2367 29.5947 32.0459C29.5947 32.8551 30.2506 33.5108 31.0596 33.5108Z" fill="#57A5FB"/>
<path d="M23.1676 44.7865H14.0918C13.2826 44.7865 12.627 45.4422 12.627 46.2514V54.1433C12.627 54.9525 13.2826 55.6082 14.0918 55.6082H23.1676C23.9768 55.6082 24.6324 54.9525 24.6324 54.1433V46.2514C24.6324 45.4422 23.9768 44.7865 23.1676 44.7865V44.7865ZM21.7027 52.6785H15.5566V47.7162H21.7027V52.6785Z" fill="#57A5FB"/>
<path d="M31.0596 55.6082H55.5244C56.3336 55.6082 56.9892 54.9525 56.9892 54.1433C56.9892 53.3342 56.3336 52.6785 55.5244 52.6785H31.0596C30.2504 52.6785 29.5947 53.3342 29.5947 54.1433C29.5947 54.9525 30.2506 55.6082 31.0596 55.6082Z" fill="#57A5FB"/>
<path d="M64.092 46.2514C64.092 45.4422 63.4363 44.7865 62.6271 44.7865H42.5029C41.6937 44.7865 41.0381 45.4422 41.0381 46.2514C41.0381 47.0605 41.6937 47.7162 42.5029 47.7162H62.6271C63.4363 47.7162 64.092 47.0604 64.092 46.2514Z" fill="#57A5FB"/>
<path d="M31.0596 47.7162H35.5973C36.4064 47.7162 37.0621 47.0605 37.0621 46.2514C37.0621 45.4422 36.4064 44.7865 35.5973 44.7865H31.0596C30.2504 44.7865 29.5947 45.4422 29.5947 46.2514C29.5947 47.0605 30.2506 47.7162 31.0596 47.7162Z" fill="#57A5FB"/>
<path d="M87.3714 42.2006C87.3436 41.5783 86.9257 41.0416 86.329 40.8627L69.3614 35.7725C68.8448 35.6174 68.2858 35.7588 67.9046 36.1397C67.5237 36.5207 67.3825 37.0803 67.5374 37.5965L72.6276 54.5641C72.8065 55.1607 73.3433 55.5787 73.9655 55.6064C73.9874 55.6076 74.0095 55.608 74.0311 55.608C74.6276 55.608 75.1677 55.2451 75.3909 54.6871L78.5511 46.7861L86.452 43.6258C87.0304 43.3947 87.3991 42.8229 87.3714 42.2006V42.2006ZM76.8802 44.2992C76.5079 44.4482 76.213 44.743 76.064 45.1154L74.2286 49.7045L71.1253 39.3604L81.4694 42.4637L76.8802 44.2992Z" fill="#2D6EB5"/>
</g>
<defs>
<clipPath id="clip0">
<rect width="100" height="100" fill="white"/>
</clipPath>
</defs>
</svg>
