<svg width="100" height="100" viewBox="0 0 100 100" fill="none" xmlns="http://www.w3.org/2000/svg">
<path d="M50 68.7954C50.809 68.7954 51.4648 68.1396 51.4648 67.3306C51.4648 66.5216 50.809 65.8657 50 65.8657C49.191 65.8657 48.5352 66.5216 48.5352 67.3306C48.5352 68.1396 49.191 68.7954 50 68.7954Z" fill="#2D6EB5"/>
<path d="M94.6289 8.06152H26.0936C25.2846 8.06152 24.6287 8.71738 24.6287 9.52637C24.6287 10.3354 25.2846 10.9912 26.0936 10.9912H94.6289C95.9752 10.9912 97.0703 12.0863 97.0703 13.4326V60.3793H78.0479C77.2387 60.3793 76.583 61.0352 76.583 61.8441C76.583 62.6531 77.2387 63.309 78.0479 63.309H97.0703V69.1187C97.0703 70.465 95.9752 71.5602 94.6289 71.5602H5.37109C4.0248 71.5602 2.92969 70.465 2.92969 69.1187V63.309H72.1885C72.9977 63.309 73.6533 62.6531 73.6533 61.8441C73.6533 61.0352 72.9977 60.3793 72.1885 60.3793H2.92969V13.4326C2.92969 12.0863 4.0248 10.9912 5.37109 10.9912H20.2342C21.0432 10.9912 21.699 10.3354 21.699 9.52637C21.699 8.71738 21.0432 8.06152 20.2342 8.06152H5.37109C2.40938 8.06152 0 10.4711 0 13.4326V69.1187C0 72.0805 2.40938 74.4898 5.37109 74.4898H38.7115L37.3078 81.9766H32.3686C29.048 81.9766 26.3469 84.6779 26.3469 87.9982V89.0086H19.2391C18.4301 89.0086 17.7742 89.6644 17.7742 90.4734C17.7742 91.2824 18.4301 91.9383 19.2391 91.9383H80.7607C81.5699 91.9383 82.2256 91.2824 82.2256 90.4734C82.2256 89.6644 81.5699 89.0086 80.7607 89.0086H73.6531V87.9982C73.6531 84.6779 70.9518 81.9766 67.6314 81.9766H62.692L61.2883 74.4898H94.6289C97.5906 74.4898 100 72.0805 100 69.1187V13.4326C100 10.4711 97.5908 8.06152 94.6289 8.06152V8.06152ZM70.7236 87.9984V89.0088H29.2764V87.9984C29.2764 86.2936 30.6635 84.9064 32.3684 84.9064H67.6316C69.3365 84.9064 70.7236 86.2934 70.7236 87.9984ZM59.7115 81.9768H40.2885L41.6922 74.49H58.3076L59.7115 81.9768Z" fill="#2D6EB5"/>
<path d="M70.1815 35.027C70.1815 23.899 61.1282 14.8457 50.0003 14.8457C38.8724 14.8457 29.8188 23.899 29.8188 35.027C29.8188 46.1549 38.8722 55.2084 50.0001 55.2084C61.128 55.2084 70.1815 46.1551 70.1815 35.027V35.027ZM32.7485 35.027C32.7485 25.5145 40.4876 17.7754 50.0003 17.7754C59.5128 17.7754 67.2519 25.5145 67.2519 35.027C67.2519 44.5395 59.5128 52.2787 50.0001 52.2787C40.4876 52.2787 32.7485 44.5395 32.7485 35.027V35.027Z" fill="#57A5FB"/>
<path d="M49.9999 45.0133C52.1685 45.0133 54.2312 44.3297 55.9654 43.0363C56.6138 42.5525 56.7474 41.6348 56.2636 40.9863C55.7798 40.3379 54.8624 40.2043 54.2136 40.6879C52.9894 41.601 51.5324 42.0836 49.9999 42.0836C46.7152 42.0836 43.9476 39.8275 43.1648 36.7836L44.0255 37.6443C44.3115 37.9303 44.6865 38.0734 45.0613 38.0734C45.4361 38.0734 45.8111 37.9305 46.097 37.6443C46.6691 37.0723 46.6691 36.1447 46.097 35.5727L42.6304 32.1061C42.0583 31.534 41.1308 31.534 40.5587 32.1061L37.0921 35.5727C36.5201 36.1447 36.5201 37.0723 37.0921 37.6443C37.6642 38.2164 38.5917 38.2164 39.1636 37.6443L40.149 36.659C40.9308 41.3916 45.0494 45.0133 49.9999 45.0133V45.0133Z" fill="#57A5FB"/>
<path d="M45.7212 29.4151C46.9583 28.4699 48.438 27.9705 49.9999 27.9705C53.2847 27.9705 56.0524 30.2266 56.8351 33.2705L55.9743 32.4096C55.402 31.8375 54.4747 31.8375 53.9026 32.4096C53.3306 32.9817 53.3306 33.909 53.9026 34.4813L57.3692 37.9479C57.644 38.2227 58.0165 38.377 58.4052 38.377C58.7936 38.377 59.1663 38.2227 59.4411 37.9479L62.9077 34.4813C63.4798 33.9092 63.4798 32.9817 62.9077 32.4096C62.3354 31.8375 61.4081 31.8375 60.836 32.4096L59.8509 33.3948C59.0692 28.6623 54.9507 25.0406 50.0001 25.0406C47.7899 25.0406 45.6954 25.7483 43.9429 27.0869C43.3001 27.578 43.1769 28.4973 43.6681 29.1403C44.1591 29.7832 45.0784 29.9061 45.7212 29.4151V29.4151Z" fill="#57A5FB"/>
</svg>
