<svg width="100" height="100" viewBox="0 0 100 100" fill="none" xmlns="http://www.w3.org/2000/svg">
<path d="M17.5703 71.9492C18.3795 71.9492 19.0352 71.2934 19.0352 70.4844V20.3112C19.0352 17.8879 21.0066 15.9166 23.4297 15.9166H37.617C38.4262 15.9166 39.0818 15.2608 39.0818 14.4518C39.0818 13.6428 38.4262 12.9869 37.617 12.9869H23.4297C19.391 12.9869 16.1055 16.2725 16.1055 20.3112V70.4844C16.1055 71.2934 16.7611 71.9492 17.5703 71.9492Z" fill="#2D6EB5"/>
<path d="M38.9922 20.1926C36.8922 20.1926 35.1836 21.9012 35.1836 24.0012V29.4387C35.1836 31.5387 36.8922 33.2473 38.9922 33.2473H61.0078C63.1078 33.2473 64.8164 31.5387 64.8164 29.4387V24.0012C64.8164 21.9012 63.1078 20.1926 61.0078 20.1926H58.5508V3.41797C58.5508 1.5334 57.0174 0 55.1328 0H44.8672C42.9826 0 41.4492 1.5334 41.4492 3.41797V20.1926H38.9922ZM58.5506 23.9219V23.1223H61.0076C61.4922 23.1223 61.8865 23.5166 61.8865 24.0012V29.4387C61.8865 29.9232 61.4922 30.3176 61.0076 30.3176H38.992C38.5074 30.3176 38.1131 29.9232 38.1131 29.4387V24.0012C38.1131 23.5166 38.5074 23.1223 38.992 23.1223H41.449V23.9219C41.449 25.8064 42.9824 27.3398 44.867 27.3398H55.1326C57.0174 27.3398 58.5506 25.8064 58.5506 23.9219ZM44.3789 3.41797C44.3789 3.14883 44.5979 2.92969 44.8672 2.92969H55.1328C55.4022 2.92969 55.6211 3.14883 55.6211 3.41797V23.9219C55.6211 24.191 55.4022 24.4102 55.1328 24.4102H44.8672C44.5979 24.4102 44.3789 24.191 44.3789 23.9219V3.41797Z" fill="#2D6EB5"/>
<path d="M82.4297 42.0531C81.6205 42.0531 80.9648 42.709 80.9648 43.5179V92.6758C80.9648 95.099 78.9934 97.0703 76.5703 97.0703H23.4297C21.0066 97.0703 19.0352 95.099 19.0352 92.6758V76.875C19.0352 76.066 18.3795 75.4101 17.5703 75.4101C16.7611 75.4101 16.1055 76.066 16.1055 76.875V92.6758C16.1055 96.7144 19.391 100 23.4297 100H76.5703C80.609 100 83.8945 96.7144 83.8945 92.6758V43.5179C83.8945 42.709 83.2389 42.0531 82.4297 42.0531Z" fill="#2D6EB5"/>
<path d="M76.5701 12.9869H62.4297C61.6205 12.9869 60.9648 13.6428 60.9648 14.4518C60.9648 15.2608 61.6205 15.9166 62.4297 15.9166H76.5701C78.9932 15.9166 80.9647 17.8879 80.9647 20.3112V37.3672C80.9647 38.1762 81.6203 38.8321 82.4295 38.8321C83.2387 38.8321 83.8943 38.1762 83.8943 37.3672V20.3112C83.8943 16.2725 80.6088 12.9869 76.5701 12.9869Z" fill="#2D6EB5"/>
<path d="M50.0001 37.5027C40.9403 37.5027 33.5698 44.8732 33.5698 53.933C33.5698 62.9925 40.9403 70.3632 50.0001 70.3632C59.0599 70.3632 66.4304 62.9927 66.4304 53.933C66.4304 44.8732 59.0599 37.5027 50.0001 37.5027ZM44.629 66.316V62.2968C44.629 60.9205 45.7487 59.8007 47.1251 59.8007H52.8751C54.2515 59.8007 55.371 60.9205 55.371 62.2968V66.316C53.7237 67.0332 51.9081 67.4333 49.9999 67.4333C48.0919 67.4335 46.2763 67.0333 44.629 66.316V66.316ZM58.3009 64.5685V62.2968C58.3009 59.305 55.8669 56.871 52.8753 56.871H47.1253C44.1335 56.871 41.6995 59.305 41.6995 62.2968V64.5685C38.5378 62.0955 36.4997 58.249 36.4997 53.9332C36.4997 46.4888 42.5562 40.4326 50.0003 40.4326C57.4444 40.4326 63.5009 46.4888 63.5009 53.9332C63.5007 58.249 61.4626 62.0953 58.3009 64.5685Z" fill="#57A5FB"/>
<path d="M49.9998 43.3711C46.8918 43.3711 44.3633 45.8996 44.3633 49.0078C44.3633 52.116 46.8918 54.6445 49.9998 54.6445C53.108 54.6445 55.6365 52.116 55.6365 49.0078C55.6365 45.8996 53.108 43.3711 49.9998 43.3711ZM49.9998 51.7148C48.507 51.7148 47.293 50.5006 47.293 49.0078C47.293 47.515 48.5072 46.3008 49.9998 46.3008C51.4924 46.3008 52.7068 47.515 52.7068 49.0078C52.7068 50.5006 51.4926 51.7148 49.9998 51.7148Z" fill="#57A5FB"/>
<path d="M70.012 77.9844C70.012 76.0998 68.4786 74.5664 66.594 74.5664H33.4058C31.5212 74.5664 29.9878 76.0998 29.9878 77.9844V81.5313C29.9878 83.4158 31.5212 84.9492 33.4058 84.9492H66.594C68.4786 84.9492 70.012 83.4158 70.012 81.5313V77.9844ZM67.0823 81.5313C67.0823 81.8004 66.8634 82.0195 66.594 82.0195H33.4058C33.1364 82.0195 32.9175 81.8004 32.9175 81.5313V77.9844C32.9175 77.7152 33.1364 77.4961 33.4058 77.4961H66.594C66.8634 77.4961 67.0823 77.7152 67.0823 77.9844V81.5313Z" fill="#57A5FB"/>
<path d="M31.4526 88.3477C30.6435 88.3477 29.9878 89.0035 29.9878 89.8125C29.9878 90.6215 30.6435 91.2773 31.4526 91.2773H49.289C50.0981 91.2773 50.7538 90.6215 50.7538 89.8125C50.7538 89.0035 50.0981 88.3477 49.289 88.3477H31.4526Z" fill="#2D6EB5"/>
<path d="M55.4297 88.3477C54.6205 88.3477 53.9648 89.0035 53.9648 89.8125C53.9648 90.6215 54.6205 91.2773 55.4297 91.2773H57.7266C58.5357 91.2773 59.1914 90.6215 59.1914 89.8125C59.1914 89.0035 58.5357 88.3477 57.7266 88.3477H55.4297Z" fill="#2D6EB5"/>
<path d="M63.5391 88.3477C62.7299 88.3477 62.0742 89.0035 62.0742 89.8125C62.0742 90.6215 62.7299 91.2773 63.5391 91.2773H68.5473C69.3564 91.2773 70.0121 90.6215 70.0121 89.8125C70.0121 89.0035 69.3564 88.3477 68.5473 88.3477H63.5391Z" fill="#2D6EB5"/>
</svg>
