<svg width="100" height="100" viewBox="0 0 100 100" fill="none" xmlns="http://www.w3.org/2000/svg">
<path d="M20.7515 34.2348C20.7515 35.0438 21.4073 35.6996 22.2163 35.6996H47.8517C48.6606 35.6996 49.3165 35.0438 49.3165 34.2348C49.3165 33.4258 48.6606 32.7699 47.8517 32.7699H22.2163C21.4071 32.7699 20.7515 33.4258 20.7515 34.2348V34.2348Z" fill="#57A5FB"/>
<path d="M42.5782 40.3453H22.2163C21.4073 40.3453 20.7515 41.0012 20.7515 41.8102C20.7515 42.6191 21.4073 43.275 22.2163 43.275H42.5782C43.3872 43.275 44.0431 42.6191 44.0431 41.8102C44.0431 41.0012 43.3872 40.3453 42.5782 40.3453Z" fill="#57A5FB"/>
<path d="M42.5782 47.9209H22.2163C21.4073 47.9209 20.7515 48.5768 20.7515 49.3858C20.7515 50.1948 21.4073 50.8506 22.2163 50.8506H42.5782C43.3872 50.8506 44.0431 50.1948 44.0431 49.3858C44.0431 48.5768 43.3872 47.9209 42.5782 47.9209V47.9209Z" fill="#57A5FB"/>
<path d="M44.0431 56.9614C44.0431 56.1524 43.3872 55.4965 42.5782 55.4965H22.2163C21.4073 55.4965 20.7515 56.1524 20.7515 56.9614C20.7515 57.7703 21.4073 58.4262 22.2163 58.4262H42.5782C43.3872 58.4262 44.0431 57.7703 44.0431 56.9614Z" fill="#57A5FB"/>
<path d="M47.8516 63.0721H34.1797C33.3707 63.0721 32.7148 63.7279 32.7148 64.5369C32.7148 65.3459 33.3707 66.0018 34.1797 66.0018H47.8516C48.6605 66.0018 49.3164 65.3459 49.3164 64.5369C49.3164 63.7279 48.6605 63.0721 47.8516 63.0721Z" fill="#57A5FB"/>
<path d="M22.2163 63.0721C21.4073 63.0721 20.7515 63.7279 20.7515 64.5369C20.7515 65.3459 21.4073 66.0018 22.2163 66.0018H29.297C30.106 66.0018 30.7618 65.3459 30.7618 64.5369C30.7618 63.7279 30.106 63.0721 29.297 63.0721H22.2163Z" fill="#57A5FB"/>
<path d="M22.2163 73.5772H58.3331C59.1421 73.5772 59.7979 72.9213 59.7979 72.1123C59.7979 71.3033 59.1421 70.6475 58.3331 70.6475H22.2163C21.4073 70.6475 20.7515 71.3033 20.7515 72.1123C20.7515 72.9213 21.4071 73.5772 22.2163 73.5772V73.5772Z" fill="#57A5FB"/>
<path d="M58.333 28.1059C59.142 28.1059 59.7979 27.45 59.7979 26.641C59.7979 25.832 59.142 25.1762 58.333 25.1762H38.6719C37.8629 25.1762 37.207 25.832 37.207 26.641C37.207 27.45 37.8629 28.1059 38.6719 28.1059H58.333Z" fill="#57A5FB"/>
<path d="M99.3744 81.8789L86.7857 66.8166C86.3244 66.2646 85.6756 65.9254 84.959 65.8611C84.7361 65.841 84.5154 65.8517 84.2998 65.8853L79.8088 60.5117C81.8434 57.8383 83.0947 54.6443 83.4016 51.2158C83.8312 46.4139 82.365 41.732 79.2734 38.0328C77.0391 35.3594 74.1881 33.5 71.0998 32.4822V29.1066H82.3164C83.4473 29.1066 84.3672 28.1867 84.3672 27.0559V16.9445C84.3672 12.4166 80.6834 8.733 76.1557 8.733H34.5703C33.7613 8.733 33.1055 9.38886 33.1055 10.1978C33.1055 11.0068 33.7613 11.6627 34.5703 11.6627H69.8644C68.8014 12.9969 68.1701 14.6801 68.1701 16.4834V31.7814C63.2219 31.0223 57.9838 32.3033 53.8496 35.7586C50.1504 38.8504 47.8766 43.1975 47.4469 47.9994C47.0172 52.8014 48.4834 57.4832 51.575 61.1824C54.6666 64.8816 59.0139 67.1555 63.8158 67.5851C64.3645 67.6342 64.9111 67.6586 65.4555 67.6586C66.3707 67.6586 67.277 67.5855 68.1699 67.4498V71.2891C68.1699 72.098 68.8258 72.7539 69.6348 72.7539C70.4437 72.7539 71.0996 72.098 71.0996 71.2891V66.7475C71.9576 66.4631 72.7945 66.1148 73.6037 65.7017L78.0941 71.0746C77.7955 71.9389 77.9402 72.9336 78.568 73.6849L91.1566 88.7474C91.6887 89.3838 92.4543 89.7123 93.2254 89.7123C93.8348 89.7123 94.4475 89.507 94.9504 89.0867L99.035 85.6728C100.175 84.7203 100.327 83.0183 99.3744 81.8789V81.8789ZM71.0998 16.4832C71.0998 14.0937 72.8812 12.0422 75.2436 11.7109C75.2443 11.7109 75.2451 11.7107 75.2457 11.7107C75.4195 11.6861 75.5935 11.6625 75.7691 11.6625H76.1555C79.0726 11.6625 81.4373 14.0273 81.4373 16.9443V26.1769H71.0996V16.4832H71.0998ZM64.077 64.6668C60.0545 64.307 56.4129 62.4021 53.823 59.3035C51.2332 56.2047 50.0051 52.2828 50.3648 48.2603C50.7246 44.2379 52.6295 40.5963 55.7281 38.0064C58.5521 35.6463 61.9906 34.4947 65.4117 34.4947C69.7398 34.4947 74.0393 36.3389 77.0252 39.9117C79.615 43.0105 80.8432 46.9324 80.4834 50.9549C80.1236 54.9773 78.2187 58.6189 75.1201 61.2088C72.0215 63.7986 68.1002 65.0269 64.077 64.6668ZM76.9988 63.4566C77.2855 63.217 77.5607 62.9672 77.8303 62.7127L81.8053 67.4689L80.0943 68.899L76.1191 64.1428C76.4174 63.9226 76.7121 63.6965 76.9988 63.4566ZM93.2531 86.6869L80.9678 71.9873L84.6896 68.8767L96.975 83.5764L93.2531 86.6869Z" fill="#2D6EB5"/>
<path d="M76.4459 51.7348C75.6781 51.4801 74.849 51.8957 74.5941 52.6635C74.0297 54.3635 73.0023 55.8715 71.6228 57.0244C69.6416 58.6803 67.1342 59.4655 64.5627 59.2354C61.991 59.0053 59.6629 57.7875 58.0072 55.8065C56.3516 53.8254 55.5662 51.318 55.7965 48.7465C56.0266 46.1748 57.2443 43.8467 59.2254 42.191C63.3152 38.7729 69.423 39.3195 72.841 43.409C73.6633 44.393 74.2727 45.5086 74.652 46.7254C74.8928 47.4979 75.7143 47.9279 76.4865 47.6877C77.2588 47.4469 77.6896 46.6256 77.4488 45.8531C76.9539 44.2662 76.1598 42.8117 75.0889 41.5303C70.6348 36.201 62.6756 35.4891 57.3465 39.943C52.0172 44.3971 51.3051 52.3563 55.7592 57.6854C57.9168 60.267 60.9506 61.8539 64.3018 62.1535C64.6846 62.1877 65.0662 62.2047 65.4459 62.2047C68.3902 62.2047 71.215 61.1836 73.5016 59.2725C75.2992 57.7699 76.6385 55.8039 77.3746 53.5867C77.6295 52.8188 77.2139 51.9897 76.4459 51.7348V51.7348Z" fill="#57A5FB"/>
<path d="M69.635 76.6601C68.826 76.6601 68.1701 77.316 68.1701 78.125V83.0555C68.1701 85.968 65.8006 88.3373 62.8883 88.3373H62.0186C59.1061 88.3373 56.7367 85.968 56.7367 83.0555V80.3146C56.7367 79.1838 55.8168 78.2639 54.6859 78.2639H13.1162V16.9445C13.1162 14.032 15.4855 11.6627 18.398 11.6627H27.7344C28.5434 11.6627 29.1992 11.0068 29.1992 10.1978C29.1992 9.38886 28.5434 8.733 27.7344 8.733H18.398C13.8701 8.733 10.1865 12.4168 10.1865 16.9445V78.2641H2.05078C0.919922 78.2641 0 79.184 0 80.3148V83.0557C0 87.5836 3.68359 91.2672 8.21152 91.2672H62.8881C67.416 91.2672 71.0996 87.5834 71.0996 83.0557V78.125C71.0998 77.316 70.4439 76.6601 69.635 76.6601V76.6601ZM8.21152 88.3375C5.29922 88.3375 2.92969 85.968 2.92969 83.0557V81.1937H53.8068V83.0557C53.8068 85.0654 54.5324 86.9088 55.7355 88.3375H8.21152Z" fill="#2D6EB5"/>
<path d="M22.168 28.125C22.977 28.125 23.6328 27.4692 23.6328 26.6602C23.6328 25.8511 22.977 25.1953 22.168 25.1953C21.359 25.1953 20.7031 25.8511 20.7031 26.6602C20.7031 27.4692 21.359 28.125 22.168 28.125Z" fill="#2D6EB5"/>
<path d="M27.4414 28.125C28.2504 28.125 28.9062 27.4692 28.9062 26.6602C28.9062 25.8511 28.2504 25.1953 27.4414 25.1953C26.6324 25.1953 25.9766 25.8511 25.9766 26.6602C25.9766 27.4692 26.6324 28.125 27.4414 28.125Z" fill="#2D6EB5"/>
<path d="M32.7148 28.125C33.5239 28.125 34.1797 27.4692 34.1797 26.6602C34.1797 25.8511 33.5239 25.1953 32.7148 25.1953C31.9058 25.1953 31.25 25.8511 31.25 26.6602C31.25 27.4692 31.9058 28.125 32.7148 28.125Z" fill="#2D6EB5"/>
</svg>
