<svg width="100" height="100" viewBox="0 0 100 100" fill="none" xmlns="http://www.w3.org/2000/svg">
<path d="M98.3333 21.6667C99.2537 21.6667 100 20.9204 100 20V13.3333C100 8.73128 96.2687 5 91.6667 5H8.33333C3.73128 5 0 8.73128 0 13.3333V66.6667C0 71.2687 3.73128 75 8.33333 75H35.3337L29.0837 85H23.3333C18.7313 85 15 88.7313 15 93.3333C15 94.2537 15.7463 95 16.6667 95H83.3333C84.2537 95 85 94.2537 85 93.3333C85 88.7313 81.2687 85 76.6667 85H70.9163L64.6663 75H91.6667C96.2687 75 100 71.2687 100 66.6667V31.6667C100 30.7463 99.2537 30 98.3333 30C97.4129 30 96.6667 30.7463 96.6667 31.6667V58.3333H20C19.0796 58.3333 18.3333 59.0796 18.3333 60C18.3333 60.9204 19.0796 61.6667 20 61.6667H96.6667V66.6667C96.6667 69.4279 94.4279 71.6667 91.6667 71.6667H8.33333C5.5721 71.6667 3.33333 69.4279 3.33333 66.6667V61.6667H11.1165C12.0369 61.6667 12.7832 60.9204 12.7832 60C12.7832 59.0796 12.0369 58.3333 11.1165 58.3333H3.33333V13.3333C3.33333 10.5721 5.5721 8.33333 8.33333 8.33333H91.6667C94.4279 8.33333 96.6667 10.5721 96.6667 13.3333V20C96.6667 20.9204 97.4129 21.6667 98.3333 21.6667ZM81.3835 91.6667H18.6165C19.3229 89.668 21.2134 88.3325 23.3333 88.3333H76.6667C78.7866 88.3325 80.6771 89.668 81.3835 91.6667ZM60.7503 75L67.0003 85H32.9997L39.2497 75H60.7503Z" fill="#2D6EB5"/>
<path d="M86.6668 66.6667C86.6668 67.5871 85.9206 68.3333 85.0002 68.3333C84.0798 68.3333 83.3335 67.5871 83.3335 66.6667C83.3335 65.7463 84.0798 65 85.0002 65C85.9206 65 86.6668 65.7463 86.6668 66.6667Z" fill="#2D6EB5"/>
<path d="M79.9998 66.6667C79.9998 67.5871 79.2536 68.3333 78.3332 68.3333C77.4128 68.3333 76.6665 67.5871 76.6665 66.6667C76.6665 65.7463 77.4128 65 78.3332 65C79.2536 65 79.9998 65.7463 79.9998 66.6667Z" fill="#2D6EB5"/>
<path d="M31.6667 50C32.5871 50 33.3333 49.2537 33.3333 48.3333V45.533C33.9152 45.271 34.4727 44.9585 35 44.5996L37.4333 46.0002C38.23 46.4526 39.2424 46.1768 39.6997 45.3833L43.0331 39.6167C43.2577 39.2342 43.3195 38.7785 43.2072 38.3504C43.0949 37.9224 42.8166 37.5562 42.4333 37.3332L40 35.9334C40 35.6169 40 35.3166 40 35C40 34.6834 40 34.3831 40 34.0666L42.417 32.6668C42.7995 32.4438 43.0778 32.0776 43.1909 31.6496C43.3032 31.2215 43.2406 30.7658 43.0168 30.3833L39.6834 24.6167C39.2253 23.8232 38.2137 23.5474 37.417 23.9998L35 25.4004C34.4727 25.0415 33.9152 24.729 33.3333 24.467V21.6667C33.3333 20.7463 32.5871 20 31.6667 20H25C24.0796 20 23.3333 20.7463 23.3333 21.6667V24.467C22.7515 24.729 22.194 25.0415 21.6667 25.4004L19.2334 23.9998C18.4367 23.5474 17.4243 23.8232 16.967 24.6167L13.6336 30.3833C13.409 30.7658 13.3472 31.2215 13.4595 31.6496C13.5718 32.0776 13.8501 32.4438 14.2334 32.6668L16.6504 34.0666V35V35.9334L14.2334 37.3332C13.8501 37.5562 13.5718 37.9224 13.4595 38.3504C13.3472 38.7785 13.409 39.2342 13.6336 39.6167L16.967 45.3833C17.4243 46.1768 18.4367 46.4526 19.2334 46.0002L21.6667 44.5996C22.194 44.9585 22.7515 45.271 23.3333 45.533V48.3333C23.3333 49.2537 24.0796 50 25 50C25.9204 50 26.6667 49.2537 26.6667 48.3333V44.4165C26.6642 43.7109 26.2167 43.0827 25.5501 42.8499C24.5882 42.5073 23.6963 41.993 22.9167 41.333C22.3812 40.8724 21.613 40.7983 21.0002 41.1499L19.0666 42.2835L17.3999 39.3831L19.3335 38.3333C19.9504 37.9834 20.2775 37.2811 20.1498 36.5837C19.9504 35.5819 19.9504 34.5516 20.1498 33.5498C20.3426 32.8092 20.0057 32.0321 19.3335 31.6667L17.3999 30.5501L19.0666 27.6497L21.0002 28.7834C21.613 29.1349 22.3812 29.0617 22.9167 28.6003C23.6963 27.9403 24.5882 27.4259 25.5501 27.0833C26.2167 26.8506 26.6642 26.2223 26.6667 25.5168V23.3333H30V25.5835C30.0025 26.2891 30.45 26.9173 31.1166 27.1501C32.0785 27.4927 32.9704 28.007 33.75 28.667C34.2855 29.1276 35.0537 29.2017 35.6665 28.8501L37.6001 27.7165L39.2668 30.6169L37.3332 31.6667C36.7163 32.0166 36.3892 32.7189 36.5169 33.4163C36.7163 34.4181 36.7163 35.4484 36.5169 36.4502C36.3241 37.1908 36.661 37.9679 37.3332 38.3333L39.2668 39.4499L37.6001 42.3503L35.6665 41.2166C35.0537 40.8651 34.2855 40.9383 33.75 41.3997C32.9704 42.0597 32.0785 42.5741 31.1166 42.9167C30.45 43.1494 30.0025 43.7777 30 44.4832V48.3333C30 49.2537 30.7463 50 31.6667 50Z" fill="#57A5FB"/>
<path d="M33.3335 35C33.3335 32.2388 31.0947 30 28.3335 30C25.5723 30 23.3335 32.2388 23.3335 35C23.3335 37.7612 25.5723 40 28.3335 40C31.0947 40 33.3335 37.7612 33.3335 35ZM28.3335 36.6667C27.4131 36.6667 26.6668 35.9204 26.6668 35C26.6668 34.0796 27.4131 33.3333 28.3335 33.3333C29.2539 33.3333 30.0002 34.0796 30.0002 35C30.0002 35.9204 29.2539 36.6667 28.3335 36.6667Z" fill="#57A5FB"/>
<path d="M65 35C65 38.6816 67.985 41.6667 71.6667 41.6667C75.3483 41.6667 78.3333 38.6816 78.3333 35C78.3333 31.3184 75.3483 28.3333 71.6667 28.3333C67.985 28.3333 65 31.3184 65 35ZM75 35C75 36.8408 73.5075 38.3333 71.6667 38.3333C69.8258 38.3333 68.3333 36.8408 68.3333 35C68.3333 33.1592 69.8258 31.6667 71.6667 31.6667C73.5075 31.6667 75 33.1592 75 35Z" fill="#57A5FB"/>
<path d="M91.4835 29.3335L86.4835 20.6665C86.2719 20.2767 85.9138 19.9878 85.4882 19.8625C85.0634 19.7371 84.6052 19.7868 84.2162 20L79.9999 22.5163C79.4636 22.1672 78.907 21.8498 78.3332 21.5666V16.6667C78.3332 15.7463 77.587 15 76.6666 15H66.6666C65.7462 15 64.9999 15.7463 64.9999 16.6667V21.5666C64.4262 21.8498 63.8695 22.1672 63.3332 22.5163L59.1169 20C58.3243 19.5451 57.3136 19.8128 56.8497 20.5998L51.8497 29.2668C51.5868 29.6582 51.5022 30.1424 51.6169 30.5998C51.7309 31.0571 52.0336 31.4453 52.4503 31.6667L56.6666 34.0666V35V35.9334L52.4503 38.3333C51.6625 38.7964 51.3948 39.8079 51.8497 40.5998L56.8497 49.2668C57.3136 50.0545 58.3243 50.3214 59.1169 49.8665L63.3332 47.4837C63.8695 47.8328 64.4262 48.1502 64.9999 48.4334V53.3333C64.9999 54.2537 65.7462 55 66.6666 55H76.6666C77.587 55 78.3332 54.2537 78.3332 53.3333V48.4334C78.907 48.1502 79.4636 47.8328 79.9999 47.4837L84.2162 50C85.0089 50.4549 86.0196 50.1872 86.4835 49.4002C86.7073 49.0177 86.7699 48.562 86.6576 48.1339C86.5445 47.7051 86.2662 47.3397 85.8829 47.1167L80.6998 44.1333C80.1122 43.7866 79.3733 43.833 78.8329 44.2497C77.9857 44.9382 77.0425 45.4997 76.0334 45.9163C75.4109 46.1727 75.0032 46.7773 74.9999 47.4504V51.6667H68.3332V47.3503C68.33 46.6772 67.9223 46.0726 67.2997 45.8171C66.2906 45.3996 65.3474 44.8381 64.5002 44.1504C63.9599 43.7329 63.2209 43.6865 62.6334 44.0332L58.8997 46.1833L55.5663 40.4167L59.3 38.3333C59.8917 37.9997 60.2213 37.3405 60.1334 36.6667C59.9552 35.5965 59.9552 34.5036 60.1334 33.4334C60.2213 32.7596 59.8917 32.1004 59.3 31.7668L55.5663 29.5996L58.8997 23.833L62.6334 25.9831C63.2209 26.3298 63.9599 26.2842 64.5002 25.8667C65.3474 25.1782 66.2906 24.6175 67.2997 24.2C67.9223 23.9445 68.33 23.3398 68.3332 22.6668V18.3333H74.9999V22.6497C75.0032 23.3228 75.4109 23.9274 76.0334 24.1829C77.0425 24.6004 77.9857 25.1619 78.8329 25.8496C79.3733 26.2671 80.1122 26.3135 80.6998 25.9668L84.4335 23.8167L87.7668 29.5833L84.0331 31.6667C83.4415 32.0003 83.1119 32.6595 83.1998 33.3333C83.378 34.4035 83.378 35.4964 83.1998 36.5666C83.1119 37.2404 83.4415 37.8996 84.0331 38.2332L89.2162 41.2337C90.008 41.6471 90.9854 41.3639 91.4322 40.5908C91.879 39.8177 91.6373 38.8289 90.8829 38.3496L86.6666 35.9334C86.6666 35.6169 86.6666 35.3003 86.6666 35C86.6666 34.6997 86.6666 34.3831 86.6666 34.0666L90.8829 31.6667C91.28 31.4437 91.5689 31.0685 91.682 30.6283C91.7951 30.1872 91.7235 29.7201 91.4835 29.3335Z" fill="#57A5FB"/>
<path d="M38.3335 18.0664C38.6395 18.0648 38.9398 17.9777 39.2002 17.8166C43.7852 14.9732 49.3728 14.244 54.5339 15.8171C54.9669 15.9611 55.4405 15.9221 55.8433 15.708C56.247 15.4932 56.544 15.1229 56.6669 14.6835C56.9249 13.7997 56.417 12.8744 55.5333 12.6164C49.4493 10.7715 42.8648 11.6399 37.4668 15C37.0876 15.2312 36.8166 15.6039 36.7133 16.0352C36.6099 16.4673 36.6832 16.9222 36.9167 17.2998C37.226 17.7816 37.7606 18.0713 38.3335 18.0664Z" fill="#57A5FB"/>
<path d="M37.4667 51.6667C40.9774 53.8232 45.0131 54.9764 49.1334 55C50.6527 54.9951 52.1664 54.8275 53.65 54.5003C54.2684 54.4132 54.786 53.9884 54.9919 53.3984C55.1978 52.8092 55.057 52.1541 54.6265 51.7017C54.196 51.2484 53.549 51.0742 52.9501 51.25C51.7074 51.5226 50.4387 51.6626 49.1667 51.6667C45.6373 51.6715 42.1753 50.6966 39.1667 48.8501C38.3838 48.3748 37.3642 48.6206 36.8832 49.4002C36.425 50.188 36.6854 51.1979 37.4667 51.6667Z" fill="#57A5FB"/>
</svg>
