<svg width="50" height="50" viewBox="0 0 64 64" fill="none" xmlns="http://www.w3.org/2000/svg"><path d="M32 63.5c17.397 0 31.5-14.103 31.5-31.5S49.397.5 32 .5.5 14.603.5 32 14.603 63.5 32 63.5Z" fill="#C8CCDD" stroke="#fff"></path><mask id="a" maskUnits="userSpaceOnUse" x="1" y="1" width="62" height="62" style="mask-type: alpha;"><path d="M32 63c17.12 0 31-13.88 31-31C63 14.88 49.12 1 32 1 14.88 1 1 14.88 1 32c0 17.12 13.88 31 31 31Z" fill="#263479"></path></mask><g mask="url(#a)"><path d="M37.417 42.723H26.618v4.002h10.8v-4.002Z" fill="#263479"></path><path d="M36.357 38.047h-8.774s.24 5.544-.868 7.136H37.32c-1.061-1.592-.964-7.136-.964-7.136Z" fill="#FDE7E6"></path><path d="m48.988 49.04-12.727-4.58h-8.437l-12.728 4.58s-4.483 1.446-3.953 8.581h41.798c.624-7.569-3.953-8.581-3.953-8.581Z" fill="#FDE7E6"></path><path d="M48.987 49.04 38.57 45.326l-6.552 4.579-6.412-4.627-10.607 3.809s-4.483 1.446-3.953 8.582h41.847c.675-7.618-3.905-8.63-3.905-8.63Z" fill="#30429A"></path><path d="m25.653 45.23-10.607 3.809s-4.483 1.446-3.953 8.582h16.874L25.653 45.23ZM48.989 49.038l-10.416-3.712-2.17 12.341H52.94c.627-7.616-3.951-8.629-3.951-8.629Z" fill="#30429A"></path><path d="M41.66 27.15c-.29 1.88.241 3.517 1.156 3.713.965.192 1.977-1.203 2.267-3.085.29-1.882-.241-3.517-1.157-3.713-.964-.193-1.977 1.205-2.266 3.085ZM22.568 27.15c.29 1.881-.24 3.517-1.156 3.713-.965.193-1.977-1.203-2.267-3.085-.29-1.882.241-3.516 1.157-3.712.916-.197 1.93 1.204 2.266 3.085Z" fill="#FDE7E6"></path><path d="M32.21 6.952h-.29C24.352 7 20.11 9.172 21.315 22.91l1.297 10.943a4.605 4.605 0 0 0 2.406 3.183l4.098 3.037a8.386 8.386 0 0 0 2.94.771 8.383 8.383 0 0 0 2.941-.771l4.098-3.037a4.606 4.606 0 0 0 2.406-3.183l1.35-10.703C44.07 9.41 39.78 7 32.21 6.952Z" fill="#FDE7E6"></path><path d="M41.08 27.148c-.289 1.157-.433 3.037-1.202 4.05a2.785 2.785 0 0 1-2.221 1.11c-.615.048-1.233 0-1.832-.144-.482-.093-.916-.29-1.399-.338a2.636 2.636 0 0 0-1.35.434 2.058 2.058 0 0 1-1.687.093 7.077 7.077 0 0 0-2.65-.579 9.09 9.09 0 0 1-3.231 0 3.585 3.585 0 0 1-2.073-2.266c-.24-.53-.386-1.832-.578-2.363-.193-.674-.53-.192-1.157-.24l.82 6.94a4.606 4.606 0 0 0 2.406 3.183l4.097 3.037a8.386 8.386 0 0 0 2.941.771 8.385 8.385 0 0 0 2.94-.771l4.1-3.031a4.606 4.606 0 0 0 2.406-3.182l.916-7.088c-.57.001-1.053-.433-1.245.384Z" fill="#263479"></path><path d="M43.105 7.529c.868-3.857-3.809-4.435-3.809-4.435a36.203 36.203 0 0 1-8.436-1.11C21.314.633 20.205 5.406 20.205 5.406a15.63 15.63 0 0 0-1.012 5.496l1.156 13.258s.965-.145 1.302 1.302l.24 1.736h1.111c-.29-5.448-.29-9.931-.29-9.931.093-1.591 0-3.954 2.46-4.195 1.226.235 2.466.396 3.712.482 2.345.218 4.709.154 7.038-.192 1.495-.193 4.146-.772 5.208.674.771 1.012.722 2.7.771 3.905 0 .675-.048 1.302-.092 1.977l-.627 7.28h1.302c.193-3.327 1.929-2.845 1.929-2.845 1.007-7.471 2.019-12.339 2.019-12.339-.048-.092.338-4.195-3.327-4.483" fill="#263479"></path><path d="M43.443 5.697s1.06.965-.386 2.17l1.254 1.446s1.302-1.88 2.267-1.11c0 0-.29-1.111-1.736-.773.048.003.578-1.64-1.399-1.733ZM32.017 50.119l-.868-4.548-4.535-2.848-.674 2.848 6.077 4.548ZM32.017 50.119l.868-4.548 4.534-2.848.675 2.848-6.077 4.548Z" fill="#263479"></path><path d="m31.15 45.471-2.121 3.954-5.256-3.569 2.845-3.133 4.532 2.748ZM32.886 45.471l2.169 3.954 5.255-3.568-2.89-3.134-4.534 2.748ZM52.944 55.678H11.002v7.294h41.942v-7.294Z" fill="#30429A"></path></g></svg>